<?xml version="1.0" encoding="UTF-8"?>
<svg id="Layer_1" data-name="Layer 1" xmlns="http://www.w3.org/2000/svg" xmlns:xlink="http://www.w3.org/1999/xlink" viewBox="0 0 16 16">
  <defs>
    <style>
      .cls-1 {
        clip-path: url(#clippath);
      }

      .cls-2 {
        fill: none;
      }

      .cls-2, .cls-3 {
        stroke-width: 0px;
      }

      .cls-3 {
        fill: #3f3f3f;
      }
    </style>
    <clipPath id="clippath">
      <rect class="cls-2" x="0" y="0" width="16" height="16"/>
    </clipPath>
  </defs>
  <g class="cls-1">
    <g>
      <path class="cls-3" d="M8.9,1s0-.06,0-.09c0-.5-.4-.9-.9-.9s-.9.4-.9.9c0,.03,0,.06,0,.09-2.06.42-3.61,2.24-3.61,4.42h0v1.74c0,1.2-.47,2.34-1.32,3.19l-1.21,1.21c-.4.4-.12,1.08.45,1.08h13.18c.56,0,.84-.68.45-1.08l-1.21-1.21c-.85-.85-1.32-1.99-1.32-3.19v-1.74c0-2.18-1.55-4-3.61-4.42Z"/>
      <path class="cls-3" d="M9.8,13.54c0,.24-.05.47-.14.69-.09.22-.22.42-.39.59-.17.17-.37.3-.59.39-.22.09-.45.14-.69.14s-.47-.05-.69-.14c-.22-.09-.42-.22-.59-.39-.17-.17-.3-.37-.39-.59-.09-.22-.14-.45-.14-.69h3.61Z"/>
      <path class="cls-3" d="M13.86,6.32c.22,0,.41-.16.43-.38.01-.17.02-.34.02-.52,0-2.25-1.18-4.23-2.95-5.34-.29-.18-.65.04-.65.39,0,.17.09.32.23.41,1.49.96,2.47,2.64,2.47,4.54,0,.13,0,.25-.01.38-.02.27.19.52.46.52Z"/>
      <path class="cls-3" d="M15.56,4.52c.27,0,.48-.24.44-.5-.25-1.46-.9-2.78-1.82-3.86-.27-.32-.76-.11-.76.31,0,.12.04.23.12.32.79.94,1.34,2.08,1.57,3.33.04.23.23.4.46.4Z"/>
      <path class="cls-3" d="M1.69,5.42C1.69,3.17,2.87,1.2,4.64.08c.29-.18.65.04.65.39,0,.17-.09.32-.23.41-1.49.96-2.47,2.64-2.47,4.54,0,.13,0,.25.01.38.02.27-.19.52-.46.52-.22,0-.41-.16-.43-.38-.01-.17-.02-.34-.02-.52Z"/>
      <path class="cls-3" d="M.44,4.52c-.27,0-.48-.24-.44-.5C.26,2.56.9,1.24,1.83.16c.27-.32.76-.11.76.31,0,.12-.04.23-.12.32-.79.94-1.34,2.08-1.57,3.33-.04.23-.23.4-.46.4Z"/>
    </g>
  </g>
</svg>