<?xml version="1.0" encoding="UTF-8"?>
<svg id="Layer_1" data-name="Layer 1" xmlns="http://www.w3.org/2000/svg" viewBox="0 0 26 32">
  <defs>
    <style>
      .cls-1 {
        fill: #3f3f3f;
        fill-rule: evenodd;
        stroke-width: 0px;
      }
    </style>
  </defs>
  <path class="cls-1" d="M25,1H1v30h24V1ZM0,0v32h26V0H0Z"/>
  <path class="cls-1" d="M14,12.5c.83,0,1.5-.67,1.5-1.5s-.67-1.5-1.5-1.5-1.5.67-1.5,1.5.67,1.5,1.5,1.5ZM14,13.5c1.38,0,2.5-1.12,2.5-2.5s-1.12-2.5-2.5-2.5-2.5,1.12-2.5,2.5,1.12,2.5,2.5,2.5Z"/>
  <path class="cls-1" d="M14,22.5c.83,0,1.5-.67,1.5-1.5s-.67-1.5-1.5-1.5-1.5.67-1.5,1.5.67,1.5,1.5,1.5ZM14,23.5c1.38,0,2.5-1.12,2.5-2.5s-1.12-2.5-2.5-2.5-2.5,1.12-2.5,2.5,1.12,2.5,2.5,2.5Z"/>
  <path class="cls-1" d="M9,4v2c-2.76,0-5,1.74-5,4.5s2.24,4.5,5,4.5v2c-2.76,0-5,1.74-5,4.5s2.24,4.5,5,4.5v2h13V4h-13ZM9,18c-2.35,0-4,1.43-4,3.5s1.65,3.5,4,3.5h1v2h11V5h-11v2h-1c-2.35,0-4,1.43-4,3.5s1.65,3.5,4,3.5h1v4h-1Z"/>
</svg>