<?xml version="1.0" encoding="utf-8"?>
<!-- Generator: Adobe Illustrator 26.0.2, SVG Export Plug-In . SVG Version: 6.00 Build 0)  -->
<svg version="1.2" baseProfile="tiny" xmlns="http://www.w3.org/2000/svg" xmlns:xlink="http://www.w3.org/1999/xlink" x="0px"
	 y="0px" viewBox="0 0 32 32" overflow="visible" xml:space="preserve">
<g id="Layer_1">
	<g>
		<path fill="#6A6A6A" d="M0,18.828l0-5.665c0-0.319,0.227-0.594,0.54-0.654l3.926-0.579c0.144-0.405,0.313-0.81,0.506-1.211
			L2.588,7.543C2.409,7.281,2.443,6.925,2.669,6.699l4.006-4.005c0.226-0.226,0.58-0.259,0.845-0.081l3.199,2.361
			c0.4-0.193,0.804-0.363,1.208-0.506l0.578-3.942c0.06-0.314,0.335-0.541,0.654-0.541l5.665,0c0.319,0,0.594,0.227,0.654,0.541
			l0.578,3.942c0.404,0.144,0.807,0.313,1.207,0.506l3.188-2.373c0.265-0.179,0.619-0.145,0.845,0.081l4.005,4.006
			c0.226,0.225,0.26,0.581,0.081,0.844l-2.373,3.188c0.193,0.399,0.361,0.803,0.505,1.207l3.945,0.578
			c0.314,0.061,0.54,0.335,0.54,0.654l0,5.665c0,0.319-0.227,0.594-0.541,0.654l-3.945,0.579c-0.144,0.404-0.313,0.808-0.506,1.207
			l2.353,3.206c0.178,0.264,0.146,0.62-0.081,0.845l-4.006,4.005c-0.226,0.226-0.58,0.259-0.845,0.081l-3.169-2.392
			c-0.396,0.191-0.798,0.358-1.203,0.502l-0.583,3.96c-0.06,0.314-0.335,0.541-0.654,0.541l-5.665,0
			c-0.319,0-0.594-0.227-0.654-0.541l-0.581-3.96c-0.405-0.143-0.807-0.312-1.204-0.503L7.52,29.373
			c-0.265,0.179-0.619,0.145-0.845-0.081L2.67,25.286c-0.226-0.225-0.259-0.581-0.081-0.845l2.383-3.177
			c-0.193-0.4-0.362-0.805-0.506-1.211l-3.925-0.571C0.227,19.422,0,19.147,0,18.828z M1.333,13.713l0,4.565l3.682,0.524
			c0.269,0.017,0.507,0.194,0.591,0.46c0.187,0.594,0.437,1.191,0.743,1.775c0.15,0.283,0.075,0.634-0.178,0.834l-2.17,2.862
			l3.227,3.228l2.931-2.183c0.201-0.218,0.517-0.286,0.784-0.146c0.611,0.32,1.241,0.58,1.871,0.772
			c0.316,0.096,0.517,0.417,0.465,0.736c-0.008,0.055-0.023,0.108-0.043,0.157l0.47,3.383l4.565,0l0.471-3.383
			c-0.02-0.049-0.035-0.102-0.043-0.157c-0.05-0.319,0.148-0.64,0.465-0.736c0.631-0.192,1.26-0.451,1.871-0.771
			c0.286-0.15,0.637-0.074,0.834,0.18l2.852,2.178l3.228-3.228l-2.174-2.941c-0.217-0.202-0.285-0.515-0.144-0.784
			c0.316-0.603,0.572-1.218,0.761-1.828c0.098-0.315,0.411-0.511,0.736-0.462c0.024,0.003,0.047,0.008,0.07,0.014l3.469-0.487
			l0-4.565l-3.555-0.502c-0.32,0.041-0.624-0.122-0.72-0.431c-0.188-0.61-0.444-1.225-0.76-1.828
			c-0.15-0.286-0.074-0.637,0.18-0.835l2.159-2.871l-3.227-3.228L21.82,6.208c-0.201,0.217-0.516,0.285-0.784,0.144
			c-0.602-0.316-1.215-0.571-1.821-0.759c-0.315-0.098-0.505-0.421-0.461-0.736c0.003-0.017,0.006-0.034,0.01-0.049l-0.491-3.488
			l-4.565,0l-0.506,3.569c0.029,0.319-0.132,0.61-0.437,0.705c-0.606,0.188-1.218,0.443-1.821,0.759
			c-0.286,0.15-0.636,0.074-0.833-0.178L7.228,4.025L4,7.253l2.204,2.91c0.218,0.2,0.285,0.515,0.145,0.784
			c-0.306,0.584-0.556,1.181-0.743,1.775c-0.087,0.276-0.34,0.46-0.621,0.466L1.333,13.713z"/>
		<path fill="#6A6A6A" d="M11.335,20.665c-2.572-2.572-2.572-6.757,0-9.329s6.757-2.572,9.329,0s2.572,6.757,0,9.329
			S13.907,23.237,11.335,20.665z M19.545,12.455c-1.955-1.955-5.136-1.955-7.09,0s-1.955,5.136,0,7.09s5.136,1.955,7.09,0
			S21.5,14.41,19.545,12.455z"/>
	</g>
</g>
<g id="METRICS_AND_KEYLINES">
</g>
<g id="Isolation_Mode">
</g>
<g id="filled">
</g>
</svg>
