<?xml version="1.0" encoding="utf-8"?>
<!-- Generator: Adobe Illustrator 26.0.2, SVG Export Plug-In . SVG Version: 6.00 Build 0)  -->
<svg version="1.2" baseProfile="tiny" xmlns="http://www.w3.org/2000/svg" xmlns:xlink="http://www.w3.org/1999/xlink" x="0px"
	 y="0px" viewBox="0 0 32 32" overflow="visible" xml:space="preserve">
<g id="Layer_1">
	<g>
		<path fill="#6A6A6A" d="M28.03,6.585l-5.326-5.82C22.55,0.596,22.332,0.5,22.103,0.5H4.571c-0.451,0-0.816,0.365-0.816,0.816
			v29.368c0,0.451,0.365,0.816,0.816,0.816h22.857c0.451,0,0.816-0.365,0.816-0.816V7.136C28.244,6.932,28.168,6.736,28.03,6.585z
			 M23.007,3.512l3.544,3.873h-3.544V3.512z M5.387,29.868V2.132h15.988v6.07c0,0.451,0.365,0.816,0.816,0.816h4.422v20.851H5.387z"
			/>
		<path fill="#6A6A6A" d="M21.283,16.754H10.64c-0.451,0-0.816-0.365-0.816-0.816c0-0.451,0.365-0.816,0.816-0.816h10.643
			c0.451,0,0.816,0.365,0.816,0.816C22.099,16.388,21.733,16.754,21.283,16.754z"/>
		<path fill="#6A6A6A" d="M18.777,10.678H10.64c-0.451,0-0.816-0.365-0.816-0.816c0-0.451,0.365-0.816,0.816-0.816h8.137
			c0.451,0,0.816,0.365,0.816,0.816C19.592,10.313,19.227,10.678,18.777,10.678z"/>
		<path fill="#6A6A6A" d="M21.283,22.814H10.64c-0.451,0-0.816-0.365-0.816-0.816c0-0.451,0.365-0.816,0.816-0.816h10.643
			c0.451,0,0.816,0.365,0.816,0.816C22.099,22.449,21.733,22.814,21.283,22.814z"/>
	</g>
</g>
<g id="METRICS_AND_KEYLINES">
</g>
<g id="Isolation_Mode">
</g>
<g id="filled">
</g>
</svg>
