<?xml version="1.0" encoding="UTF-8"?>
<svg id="icons" xmlns="http://www.w3.org/2000/svg" viewBox="0 0 16 16">
  <path d="m13.31,1.75v12.5H3.04V1.75h10.27m.75-.75H2.29v14h11.77V1h0Z"/>
  <rect x="7.6" y="2.86" width=".64" height="6.38"/>
  <g>
    <rect x="6.07" y="3.23" width=".39" height="5.64"/>
    <path d="m6.34,3.35v5.39h-.14V3.35h.14m.25-.25h-.64v5.89h.64V3.1h0Z"/>
  </g>
  <g>
    <rect x="4.43" y="2.98" width=".39" height="6.1"/>
    <path d="m4.7,3.11v5.85h-.14V3.11h.14m.25-.25h-.64v6.35h.64V2.86h0Z"/>
  </g>
  <g>
    <rect x="4.43" y="8.63" width="3.67" height=".49"/>
    <path d="m7.97,8.75v.24h-3.42v-.24h3.42m.25-.25h-3.92v.74h3.92v-.74h0Z"/>
  </g>
  <g>
    <rect x="4.65" y="2.98" width="3.45" height=".49"/>
    <path d="m7.97,3.11v.24h-3.2v-.24h3.2m.25-.25h-3.7v.74h3.7v-.74h0Z"/>
  </g>
  <g>
    <rect x="4.65" y="4.94" width="3.45" height=".49"/>
    <path d="m7.97,5.07v.24h-3.2v-.24h3.2m.25-.25h-3.7v.74h3.7v-.74h0Z"/>
  </g>
  <g>
    <rect x="4.65" y="6.91" width="3.42" height=".49"/>
    <path d="m7.94,7.03v.24h-3.17v-.24h3.17m.25-.25h-3.67v.74h3.67v-.74h0Z"/>
  </g>
  <rect x="7.62" y="11.02" width=".64" height="2.59"/>
  <g>
    <rect x="6.09" y="11.29" width=".39" height="2.11"/>
    <path d="m6.36,11.41v1.86h-.14v-1.86h.14m.25-.25h-.64v2.36h.64v-2.36h0Z"/>
  </g>
  <g>
    <rect x="4.45" y="11.04" width=".39" height="2.45"/>
    <path d="m4.72,11.17v2.2h-.14v-2.2h.14m.25-.25h-.64v2.7h.64v-2.7h0Z"/>
  </g>
  <g>
    <rect x="4.67" y="11.04" width="3.47" height=".49"/>
    <path d="m8.01,11.17v.24h-3.22v-.24h3.22m.25-.25h-3.72v.74h3.72v-.74h0Z"/>
  </g>
  <g>
    <rect x="4.67" y="13" width="3.45" height=".49"/>
    <path d="m7.99,13.13v.24h-3.2v-.24h3.2m.25-.25h-3.7v.74h3.7v-.74h0Z"/>
  </g>
  <g>
    <rect x="12.05" y="3.2" width=".39" height="2.11"/>
    <path d="m12.32,3.32v1.86h-.14v-1.86h.14m.25-.25h-.64v2.36h.64v-2.36h0Z"/>
  </g>
  <g>
    <rect x="10.41" y="2.95" width=".39" height="2.45"/>
    <path d="m10.68,3.08v2.2h-.14v-2.2h.14m.25-.25h-.64v2.7h.64v-2.7h0Z"/>
  </g>
  <g>
    <rect x="10.63" y="2.95" width="1.82" height=".49"/>
    <path d="m12.32,3.08v.24h-1.57v-.24h1.57m.25-.25h-2.07v.74h2.07v-.74h0Z"/>
  </g>
  <g>
    <rect x="10.63" y="4.92" width="1.82" height=".49"/>
    <path d="m12.32,5.04v.24h-1.57v-.24h1.57m.25-.25h-2.07v.74h2.07v-.74h0Z"/>
  </g>
</svg>