<?xml version="1.0" encoding="UTF-8"?>
<svg id="icons" xmlns="http://www.w3.org/2000/svg" viewBox="0 0 16 16">
  <defs>
    <style>
      .cls-1 {
        stroke: #000;
        stroke-miterlimit: 10;
      }

      .cls-1, .cls-2 {
        fill: none;
      }
    </style>
  </defs>
  <polygon points="14.3 12.16 1.75 12.16 1.75 13.23 14.3 13.23 14.3 12.16 14.3 12.16"/>
  <polygon points="5.16 4.74 1.74 4.74 1.74 5.81 5.16 5.81 5.16 4.74 5.16 4.74"/>
  <polygon points="11.61 2.84 4.44 2.84 4.44 3.91 11.61 3.91 11.61 2.84 11.61 2.84"/>
  <polygon points="5.16 2.84 4.08 2.84 4.08 5.71 5.16 5.71 5.16 2.84 5.16 2.84"/>
  <polygon points="11.97 2.84 10.89 2.84 10.89 5.71 11.97 5.71 11.97 2.84 11.97 2.84"/>
  <polygon points="2.83 5.17 1.74 5.17 1.74 13.23 2.83 13.23 2.83 5.17 2.83 5.17"/>
  <polygon points="14.33 4.74 13.25 4.74 13.25 13.23 14.33 13.23 14.33 4.74 14.33 4.74"/>
  <polyline class="cls-2" points="15.19 .87 15.19 15.2 .86 15.2 .86 .87"/>
  <polygon points="14.33 4.66 10.94 4.66 10.94 5.73 14.33 5.73 14.33 4.66 14.33 4.66"/>
  <rect x="4.95" y="10.19" width=".9" height="2.69"/>
  <rect x="6.74" y="10.19" width=".9" height="2.69"/>
  <rect x="8.54" y="10.19" width=".9" height="2.69"/>
  <rect x="10.33" y="10.19" width=".9" height="2.69"/>
  <rect x="3.38" y="10.2" width=".9" height="2.69"/>
  <rect x="11.87" y="10.19" width=".9" height="2.69"/>
  <line class="cls-1" x1=".48" y1=".01" x2=".48" y2="16.06"/>
  <line class="cls-1" x1="16.02" y1="15.48" x2=".1" y2="15.54"/>
  <line class="cls-1" x1="15.57" y1="0" x2="15.57" y2="16.04"/>
  <line class="cls-1" x1="16.02" y1=".48" x2="-.05" y2=".49"/>
</svg>