<?xml version="1.0" encoding="utf-8"?>
<!-- Generator: Adobe Illustrator 26.5.0, SVG Export Plug-In . SVG Version: 6.00 Build 0)  -->
<svg version="1.2" baseProfile="tiny" xmlns="http://www.w3.org/2000/svg" xmlns:xlink="http://www.w3.org/1999/xlink" x="0px"
	 y="0px" viewBox="0 0 84.268 60" overflow="visible" xml:space="preserve">
<g id="grid" display="none">
</g>
<g id="stk">
	
		<rect x="-114.182" y="-3.365" fill="none" stroke="#FFFFFF" stroke-width="0.5" stroke-miterlimit="10" width="530.325" height="69.711"/>
	<polyline fill="none" stroke="#9B9B9B" stroke-width="2" stroke-miterlimit="10" points="1.024,24.766 1.024,56.974 83.33,56.974 
		83.33,24.766 	"/>
	<g>
		<g>
			<rect x="5.304" y="37.649" fill="#B8B8B8" width="73.394" height="15.641"/>
		</g>
	</g>
	<g>
		<circle fill="#808080" stroke="#808080" stroke-width="2" stroke-miterlimit="10" cx="45.004" cy="42.697" r="1.22"/>
	</g>
	<g>
		<circle fill="#808080" stroke="#808080" stroke-width="2" stroke-miterlimit="10" cx="52.043" cy="42.697" r="1.22"/>
	</g>
	<g>
		<circle fill="#808080" stroke="#808080" stroke-width="2" stroke-miterlimit="10" cx="59.082" cy="42.697" r="1.22"/>
	</g>
	<g>
		<circle fill="#808080" stroke="#808080" stroke-width="2" stroke-miterlimit="10" cx="66.121" cy="42.697" r="1.22"/>
	</g>
	<g>
		<circle fill="#808080" stroke="#808080" stroke-width="2" stroke-miterlimit="10" cx="73.16" cy="42.697" r="1.22"/>
	</g>
	<g>
		<circle fill="#808080" stroke="#808080" stroke-width="2" stroke-miterlimit="10" cx="38.059" cy="42.697" r="1.22"/>
	</g>
	<g>
		<circle fill="#808080" stroke="#808080" stroke-width="2" stroke-miterlimit="10" cx="31.114" cy="42.697" r="1.22"/>
	</g>
	<g>
		<circle fill="#808080" stroke="#808080" stroke-width="2" stroke-miterlimit="10" cx="24.169" cy="42.697" r="1.22"/>
	</g>
	<g>
		<circle fill="#808080" stroke="#808080" stroke-width="2" stroke-miterlimit="10" cx="17.224" cy="42.697" r="1.22"/>
	</g>
	<g>
		<circle fill="#808080" stroke="#808080" stroke-width="2" stroke-miterlimit="10" cx="10.278" cy="42.697" r="1.22"/>
	</g>
	
		<rect x="3.018" y="5.588" transform="matrix(-1 -1.224647e-16 1.224647e-16 -1 84.3856 39.9986)" fill="none" stroke="#9C9B9B" stroke-width="2" stroke-miterlimit="10" width="78.351" height="28.823"/>
	
		<rect x="8.417" y="46.86" transform="matrix(-1.836970e-16 1 -1 -1.836970e-16 58.8554 38.3357)" fill="#FFFFFF" width="3.685" height="3.472"/>
	
		<rect x="15.455" y="46.86" transform="matrix(-1.836970e-16 1 -1 -1.836970e-16 65.8927 31.2983)" fill="#FFFFFF" width="3.685" height="3.472"/>
	
		<rect x="22.351" y="46.86" transform="matrix(-1.836970e-16 1 -1 -1.836970e-16 72.7893 24.4017)" fill="#FFFFFF" width="3.685" height="3.472"/>
	
		<rect x="29.295" y="46.86" transform="matrix(-1.836970e-16 1 -1 -1.836970e-16 79.7329 17.4582)" fill="#FFFFFF" width="3.685" height="3.472"/>
	
		<rect x="36.193" y="46.86" transform="matrix(-1.836970e-16 1 -1 -1.836970e-16 86.6311 10.56)" fill="#FFFFFF" width="3.685" height="3.472"/>
	
		<rect x="43.091" y="46.86" transform="matrix(-1.836970e-16 1 -1 -1.836970e-16 93.5293 3.6618)" fill="#FFFFFF" width="3.685" height="3.472"/>
	
		<rect x="50.271" y="46.86" transform="matrix(-1.836970e-16 1 -1 -1.836970e-16 100.7091 -3.518)" fill="#FFFFFF" width="3.685" height="3.472"/>
	
		<rect x="57.263" y="46.86" transform="matrix(-1.836970e-16 1 -1 -1.836970e-16 107.7011 -10.5101)" fill="#FFFFFF" width="3.685" height="3.472"/>
	
		<rect x="64.255" y="46.86" transform="matrix(-1.836970e-16 1 -1 -1.836970e-16 114.6932 -17.5021)" fill="#FFFFFF" width="3.685" height="3.472"/>
	
		<rect x="71.247" y="46.86" transform="matrix(-1.836970e-16 1 -1 -1.836970e-16 121.6852 -24.4942)" fill="#FFFFFF" width="3.685" height="3.472"/>
	<g id="NbC7fQ_00000059275173569470069640000010516011937823339405_">
		<g>
			<path fill="#B8B8B8" stroke="#B8B8B8" stroke-miterlimit="10" d="M25.001,29.014c-0.363-0.275-0.375-0.611-0.244-1.026
				c0.632-2.003,1.234-4.016,1.864-6.019c0.114-0.362,0.026-0.46-0.338-0.454c-1.03,0.015-2.06,0.004-3.091,0.006
				c-0.332,0.001-0.641-0.045-0.794-0.39c-0.158-0.355,0.05-0.597,0.274-0.835c3.088-3.28,6.173-6.563,9.26-9.844
				c0.193,0,0.385,0,0.578,0c0.356,0.278,0.374,0.612,0.242,1.028c-0.632,2.002-1.233,4.014-1.862,6.018
				c-0.114,0.363-0.024,0.459,0.339,0.454c1.03-0.015,2.06-0.004,3.09-0.006c0.332-0.001,0.636,0.047,0.79,0.394
				c0.16,0.359-0.05,0.597-0.273,0.834c-3.086,3.28-6.171,6.561-9.256,9.841C25.386,29.014,25.193,29.014,25.001,29.014z
				 M30.81,13.554c-0.026-0.009-0.051-0.017-0.077-0.026c-2.081,2.212-4.161,4.424-6.242,6.636c0.996,0.098,1.928,0.094,2.86,0.099
				c0.72,0.004,0.973,0.343,0.766,1.032c-0.241,0.802-0.493,1.601-0.739,2.402c-0.227,0.739-0.452,1.478-0.677,2.217
				c0.022,0.011,0.044,0.022,0.066,0.033c2.082-2.214,4.164-4.427,6.258-6.655c-0.199-0.128-0.354-0.085-0.499-0.086
				c-0.824-0.006-1.649,0.009-2.473-0.009c-0.604-0.013-0.839-0.346-0.69-0.926c0.031-0.12,0.072-0.236,0.109-0.355
				C29.917,16.462,30.364,15.008,30.81,13.554z"/>
		</g>
	</g>
	<g id="vaVhns.tif">
		<g>
			<path fill="#808080" d="M60.573,10.517c2.951,0.558,5.713,1.564,8.106,3.429c2.256,1.759,4.046,3.895,5.219,6.515
				c0.413,0.922,0.276,1.248-0.662,1.681c-1.304,0.603-2.61,1.204-3.919,1.797c-1.036,0.469-1.312,0.364-1.832-0.66
				c-3.167-6.228-10.818-7.754-16.106-3.204c-1.058,0.91-1.835,2.037-2.442,3.29c-0.445,0.919-0.771,1.03-1.712,0.608
				c-1.257-0.564-2.501-1.156-3.755-1.724c-1.265-0.573-1.409-0.862-0.763-2.12c2.508-4.881,6.418-8.016,11.789-9.299
				c0.464-0.111,0.932-0.209,1.398-0.313C57.505,10.305,59.055,10.345,60.573,10.517z M56.536,12.169
				c-1.985,0.193-3.848,0.8-5.631,1.7c-0.744,0.375-1.151,0.74-0.365,1.477c0.284,0.266,0.316,0.646,0.118,0.995
				c-0.162,0.284-0.437,0.403-0.762,0.373c-0.405-0.036-0.622-0.341-0.828-0.633c-0.322-0.454-0.644-0.556-1.101-0.151
				c-1.428,1.264-2.578,2.739-3.488,4.409c-0.188,0.345-0.113,0.541,0.243,0.694c0.66,0.284,1.325,0.563,1.96,0.897
				c0.659,0.346,1.033,0.307,1.471-0.43c2.468-4.159,7.336-6.343,12.065-5.502c3.575,0.636,6.297,2.531,8.166,5.608
				c0.375,0.618,0.691,0.679,1.27,0.374c0.635-0.334,1.292-0.633,1.962-0.89c0.516-0.198,0.52-0.454,0.287-0.885
				c-0.76-1.407-1.728-2.654-2.864-3.773c-0.942-0.929-0.953-0.926-1.911-0.018c-0.351,0.333-0.733,0.436-1.127,0.137
				c-0.397-0.302-0.404-0.708-0.15-1.117c0.094-0.152,0.206-0.295,0.327-0.426c0.321-0.345,0.29-0.603-0.135-0.848
				c-1.922-1.105-3.972-1.798-6.188-1.996c-0.624-0.056-0.885,0.176-0.846,0.807c0.034,0.559-0.006,1.154-0.766,1.165
				c-0.762,0.011-0.825-0.574-0.787-1.14C57.502,12.307,57.202,12.057,56.536,12.169z"/>
			<path fill="#808080" d="M58.557,24.811c0.603,0.243,0.919-0.185,1.246-0.647c0.725-1.025,1.473-2.033,2.209-3.05
				c0.343-0.474,0.767-0.862,1.343-0.45c0.586,0.419,0.323,0.942-0.017,1.408c-0.705,0.965-1.386,1.95-2.129,2.886
				c-0.453,0.57-0.564,1.046-0.241,1.769c0.672,1.504-0.173,3.226-1.727,3.781c-1.567,0.56-3.25-0.229-3.794-1.78
				c-0.551-1.57,0.251-3.229,1.807-3.775C57.663,24.81,58.076,24.811,58.557,24.811z M59.562,27.746
				c0.004-0.672-0.628-1.322-1.304-1.34c-0.66-0.017-1.335,0.616-1.368,1.282c-0.033,0.686,0.659,1.394,1.355,1.385
				C58.918,29.064,59.558,28.419,59.562,27.746z"/>
		</g>
	</g>
	<line fill="#808080" stroke="#808080" stroke-width="2" stroke-miterlimit="10" x1="8.154" y1="29.838" x2="8.154" y2="10.42"/>
	<line fill="#808080" stroke="#808080" stroke-width="2" stroke-miterlimit="10" x1="11.532" y1="29.838" x2="11.532" y2="10.42"/>
	<line fill="#808080" stroke="#808080" stroke-width="2" stroke-miterlimit="10" x1="15.052" y1="29.838" x2="15.052" y2="10.42"/>
</g>
</svg>
