<svg width="53" height="60" viewBox="0 0 53 60" fill="none" xmlns="http://www.w3.org/2000/svg">
<g clip-path="url(#clip0_2_309)">
<path d="M16.458 7.87H8.16101V16.59H16.458V7.87Z" stroke="#3F3F3F" stroke-width="2" stroke-miterlimit="10"/>
<path d="M24.69 7.87H16.393V16.59H24.69V7.87Z" stroke="#3F3F3F" stroke-width="2" stroke-miterlimit="10"/>
<path d="M16.458 16.569H8.16101V25.289H16.458V16.569Z" stroke="#3F3F3F" stroke-width="2" stroke-miterlimit="10"/>
<path d="M24.69 16.569H16.393V25.289H24.69V16.569Z" stroke="#3F3F3F" stroke-width="2" stroke-miterlimit="10"/>
<path d="M16.458 25.268H8.16101V33.988H16.458V25.268Z" stroke="#3F3F3F" stroke-width="2" stroke-miterlimit="10"/>
<path d="M24.69 25.268H16.393V33.988H24.69V25.268Z" stroke="#3F3F3F" stroke-width="2" stroke-miterlimit="10"/>
<path d="M16.458 42.667H8.16101V51.387H16.458V42.667Z" stroke="#3F3F3F" stroke-width="2" stroke-miterlimit="10"/>
<path d="M24.69 42.667H16.393V51.387H24.69V42.667Z" stroke="#3F3F3F" stroke-width="2" stroke-miterlimit="10"/>
<path d="M44.431 7.819H36.134V16.539H44.431V7.819Z" stroke="#3F3F3F" stroke-width="1.5" stroke-miterlimit="10"/>
<path d="M52.053 1.036H1.099V58.897H52.053V1.036Z" stroke="#3F3F3F" stroke-width="2" stroke-miterlimit="10"/>
<path d="M43.739 50.018V39.607C43.739 38.31 42.674 37.258 41.36 37.258H38.866C37.553 37.258 36.488 38.308 36.487 39.605L36.476 50.016C36.475 51.314 37.54 52.367 38.855 52.367H41.36C42.674 52.367 43.739 51.315 43.739 50.018Z" stroke="#3F3F3F" stroke-width="2" stroke-miterlimit="10"/>
<path d="M40.154 21.523C41.124 21.523 41.914 22.294 41.914 23.242C41.914 24.19 41.125 24.961 40.154 24.961C39.183 24.961 38.394 24.19 38.394 23.242C38.394 22.294 39.184 21.523 40.154 21.523ZM40.154 20.023C38.354 20.023 36.894 21.464 36.894 23.242C36.894 25.02 38.354 26.461 40.154 26.461C41.954 26.461 43.414 25.02 43.414 23.242C43.414 21.464 41.954 20.023 40.154 20.023Z" fill="#3F3F3F"/>
<path d="M40.113 29.738C41.083 29.738 41.873 30.509 41.873 31.457C41.873 32.405 41.084 33.176 40.113 33.176C39.142 33.176 38.353 32.405 38.353 31.457C38.353 30.509 39.143 29.738 40.113 29.738ZM40.113 28.238C38.313 28.238 36.853 29.679 36.853 31.457C36.853 33.235 38.313 34.676 40.113 34.676C41.913 34.676 43.373 33.235 43.373 31.457C43.373 29.679 41.913 28.238 40.113 28.238Z" fill="#3F3F3F"/>
</g>
<defs>
<clipPath id="clip0_2_309">
<rect width="53" height="60" fill="white"/>
</clipPath>
</defs>
</svg>
