<?xml version="1.0" encoding="UTF-8"?>
<svg id="icons" xmlns="http://www.w3.org/2000/svg" viewBox="0 0 16 16">
  <defs>
    <style>
      .cls-1 {
        stroke: #000;
        stroke-miterlimit: 10;
      }

      .cls-1, .cls-2 {
        fill: none;
      }
    </style>
  </defs>
  <polygon points="3.88 1.78 2.8 1.79 2.86 14.35 3.93 14.34 3.88 1.78 3.88 1.78"/>
  <polygon points="11.31 1.75 10.23 1.75 10.24 5.16 11.32 5.16 11.31 1.75 11.31 1.75"/>
  <polygon points="13.22 4.43 12.14 4.44 12.18 11.61 13.25 11.61 13.22 4.43 13.22 4.43"/>
  <polygon points="13.22 4.07 10.35 4.09 10.35 5.16 13.22 5.15 13.22 4.07 13.22 4.07"/>
  <polygon points="13.25 10.89 10.38 10.9 10.38 11.98 13.25 11.97 13.25 10.89 13.25 10.89"/>
  <polygon points="10.87 1.75 2.98 1.79 2.99 2.86 10.88 2.83 10.87 1.75 10.87 1.75"/>
  <polygon points="10.93 13.23 3.03 13.27 3.04 14.35 10.93 14.31 10.93 13.23 10.93 13.23"/>
  <polyline class="cls-2" points="15.24 15.19 .89 15.25 .82 .9 15.18 .83"/>
  <polygon points="11.43 10.95 10.35 10.95 10.37 14.31 11.44 14.31 11.43 10.95 11.43 10.95"/>
  <rect x="4.07" y="4.09" width=".9" height="2.69" transform="translate(9.93 .89) rotate(89.74)"/>
  <rect x="4.07" y="5.88" width=".9" height="2.69" transform="translate(11.73 2.67) rotate(89.74)"/>
  <rect x="4.08" y="7.67" width=".9" height="2.69" transform="translate(13.53 4.45) rotate(89.74)"/>
  <rect x="3.19" y="10.37" width="2.69" height=".9" transform="translate(-.05 .02) rotate(-.26)"/>
  <rect x="4.05" y="2.51" width=".9" height="2.69" transform="translate(8.34 -.66) rotate(89.74)"/>
  <rect x="4.1" y="11.01" width=".9" height="2.69" transform="translate(16.88 7.75) rotate(89.74)"/>
  <line class="cls-1" x1=".48" y1=".01" x2=".48" y2="16.06"/>
  <line class="cls-1" x1="16.02" y1="15.48" x2=".1" y2="15.54"/>
  <line class="cls-1" x1="15.57" y1="0" x2="15.57" y2="16.04"/>
  <line class="cls-1" x1="16.02" y1=".48" x2="-.05" y2=".49"/>
</svg>