<?xml version="1.0" encoding="UTF-8"?>
<svg id="icons" xmlns="http://www.w3.org/2000/svg" viewBox="0 0 16 16">
  <defs>
    <style>
      .cls-1 {
        stroke: #000;
        stroke-miterlimit: 10;
      }

      .cls-1, .cls-2 {
        fill: none;
      }
    </style>
  </defs>
  <polygon points="3.88 1.78 2.8 1.79 2.86 14.35 3.93 14.34 3.88 1.78 3.88 1.78"/>
  <polygon points="11.31 1.75 10.23 1.75 10.24 5.17 11.32 5.16 11.31 1.75 11.31 1.75"/>
  <polygon points="12.53 4.08 11.45 4.08 11.49 11.72 12.56 11.72 12.53 4.08 12.53 4.08"/>
  <polygon points="12.52 4.08 10.24 4.09 10.24 5.16 12.52 5.15 12.52 4.08 12.52 4.08"/>
  <polygon points="12.56 10.9 10.38 10.91 10.38 11.98 12.57 11.97 12.56 10.9 12.56 10.9"/>
  <polygon points="10.87 1.75 2.98 1.79 2.99 2.86 10.88 2.83 10.87 1.75 10.87 1.75"/>
  <polygon points="10.93 13.23 3.03 13.27 3.04 14.35 10.93 14.31 10.93 13.23 10.93 13.23"/>
  <polyline class="cls-2" points="15.24 15.19 .89 15.25 .82 .9 15.18 .83"/>
  <polygon points="11.43 10.9 10.35 10.91 10.37 14.31 11.44 14.31 11.43 10.9 11.43 10.9"/>
  <line class="cls-1" x1=".48" y1=".01" x2=".48" y2="16.06"/>
  <line class="cls-1" x1="16.02" y1="15.48" x2=".1" y2="15.54"/>
  <line class="cls-1" x1="15.57" y1="0" x2="15.57" y2="16.04"/>
  <line class="cls-1" x1="16.02" y1=".48" x2="-.05" y2=".49"/>
</svg>