<?xml version="1.0" encoding="utf-8"?>
<!-- Generator: Adobe Illustrator 26.0.2, SVG Export Plug-In . SVG Version: 6.00 Build 0)  -->
<svg version="1.2" baseProfile="tiny" xmlns="http://www.w3.org/2000/svg" xmlns:xlink="http://www.w3.org/1999/xlink" x="0px"
	 y="0px" viewBox="0 0 16 16" overflow="visible" xml:space="preserve">
<g id="Layer_1">
	<g>
		<path fill="#FFFFFF" d="M1,15h14V1H1V15z M4.329,4.33c0.175-0.175,0.459-0.175,0.635,0L8,7.366l3.037-3.036
			c0.175-0.175,0.459-0.175,0.635,0c0.175,0.175,0.175,0.459,0,0.635L8.635,8l3.036,3.036c0.175,0.175,0.175,0.459,0,0.635
			c-0.087,0.088-0.202,0.131-0.317,0.131c-0.115,0-0.23-0.044-0.317-0.131L8,8.635l-3.036,3.036
			c-0.088,0.088-0.203,0.131-0.317,0.131c-0.115,0-0.23-0.044-0.317-0.131c-0.175-0.175-0.175-0.46,0-0.635L7.365,8L4.329,4.964
			C4.154,4.789,4.154,4.505,4.329,4.33z"/>
		<path d="M0,0v16h16V0H0z M15,15H1V1h14V15z"/>
		<path d="M7.365,8L4.33,11.036c-0.175,0.175-0.175,0.459,0,0.635c0.088,0.088,0.202,0.131,0.317,0.131
			c0.115,0,0.23-0.044,0.317-0.131L8,8.635l3.036,3.036c0.088,0.088,0.203,0.131,0.317,0.131c0.115,0,0.23-0.044,0.317-0.131
			c0.175-0.175,0.175-0.46,0-0.635L8.635,8l3.036-3.036c0.175-0.175,0.175-0.459,0-0.635c-0.175-0.175-0.459-0.175-0.635,0L8,7.366
			L4.963,4.33c-0.175-0.175-0.46-0.175-0.635,0c-0.175,0.175-0.175,0.459,0,0.635L7.365,8z"/>
	</g>
</g>
<g id="METRICS_AND_KEYLINES">
</g>
<g id="Isolation_Mode">
</g>
<g id="filled">
</g>
</svg>
