<?xml version="1.0" encoding="utf-8"?>
<!-- Generator: Adobe Illustrator 26.0.2, SVG Export Plug-In . SVG Version: 6.00 Build 0)  -->
<svg version="1.2" baseProfile="tiny" xmlns="http://www.w3.org/2000/svg" xmlns:xlink="http://www.w3.org/1999/xlink" x="0px"
	 y="0px" viewBox="0 0 16 16" overflow="visible" xml:space="preserve">
<g id="Layer_1">
	<g>
		<circle cx="8" cy="8" r="8"/>
		<path fill="#FFFFFF" d="M11.671,4.329c-0.175-0.175-0.459-0.175-0.635,0L8,7.366L4.963,4.33c-0.175-0.175-0.46-0.175-0.635,0
			c-0.175,0.175-0.175,0.46,0,0.635L7.365,8l-3.036,3.036c-0.175,0.175-0.175,0.459,0,0.635c0.088,0.088,0.203,0.131,0.317,0.131
			c0.115,0,0.23-0.044,0.317-0.131L8,8.635l3.036,3.036c0.088,0.088,0.202,0.131,0.317,0.131c0.115,0,0.23-0.044,0.317-0.131
			c0.175-0.175,0.175-0.46,0-0.635L8.635,8l3.036-3.036C11.847,4.789,11.847,4.505,11.671,4.329z"/>
	</g>
</g>
<g id="METRICS_AND_KEYLINES">
</g>
<g id="Isolation_Mode">
</g>
<g id="filled">
</g>
</svg>
