<?xml version="1.0" encoding="utf-8"?>
<!-- Generator: Adobe Illustrator 22.1.0, SVG Export Plug-In . SVG Version: 6.00 Build 0)  -->
<svg version="1.2" baseProfile="tiny" id="Layer_1" xmlns="http://www.w3.org/2000/svg" xmlns:xlink="http://www.w3.org/1999/xlink"
	 x="0px" y="0px" viewBox="0 0 16 16" xml:space="preserve">
<g>
	<path fill-rule="evenodd" fill="#212121" d="M15.897,14.625L8.439,0.863c-0.241-0.478-0.638-0.478-0.88,0L0.103,14.625
		c-0.242,0.478-0.044,0.871,0.44,0.871h14.912C15.941,15.496,16.139,15.103,15.897,14.625z M8.065,11.341
		c-0.3,0-0.542-0.243-0.542-0.542V5.072c0-0.3,0.243-0.542,0.542-0.542c0.3,0,0.542,0.243,0.542,0.542v5.726
		C8.607,11.098,8.364,11.341,8.065,11.341z M7.715,12.67c0.38-0.175,0.833-0.009,1.008,0.371c0.176,0.379,0.011,0.831-0.369,1.007
		c-0.379,0.176-0.832,0.011-1.008-0.369C7.171,13.298,7.336,12.847,7.715,12.67z"/>
</g>
</svg>
