<?xml version="1.0" encoding="utf-8"?>
<!-- Generator: Adobe Illustrator 26.0.2, SVG Export Plug-In . SVG Version: 6.00 Build 0)  -->
<svg version="1.2" baseProfile="tiny" xmlns="http://www.w3.org/2000/svg" xmlns:xlink="http://www.w3.org/1999/xlink" x="0px"
	 y="0px" viewBox="0 0 16 16" overflow="visible" xml:space="preserve">
<g id="Layer_1">
	<path d="M8,0C5.941,0,3.984,0.781,2.491,2.198C2.469,2.22,2.45,2.244,2.427,2.266C2.422,2.27,2.416,2.272,2.411,2.277
		C2.404,2.283,2.403,2.291,2.397,2.298C0.853,3.814,0,5.831,0,8c0,4.411,3.589,8,8,8s8-3.589,8-8S12.411,0,8,0z M15.207,8
		c0,1.805-0.671,3.452-1.772,4.718L3.27,2.574C4.582,1.428,6.248,0.793,8,0.793C11.974,0.793,15.207,4.026,15.207,8z M0.793,8
		c0-1.831,0.678-3.54,1.908-4.873l10.181,10.159C11.596,14.474,9.884,15.207,8,15.207C4.026,15.207,0.793,11.974,0.793,8z"/>
</g>
<g id="METRICS_AND_KEYLINES">
</g>
<g id="Isolation_Mode">
</g>
<g id="filled">
</g>
</svg>
